<svg width="170" height="155" viewBox="0 0 170 155" fill="none" xmlns="http://www.w3.org/2000/svg">
<mask id="path-1-inside-1" fill="white">
<path fill-rule="evenodd" clip-rule="evenodd" d="M85 144C131.944 144 170 111.765 170 72C170 32.2355 131.944 0 85 0C38.0558 0 0 32.2355 0 72C0 92.6088 10.222 111.195 26.6056 124.32L12.6249 154.821L48.2345 136.935C59.3609 141.463 71.8307 144 85 144Z"/>
</mask>
<path d="M26.6056 124.32L32.0599 126.82L34.0106 122.564L30.3569 119.637L26.6056 124.32ZM12.6249 154.821L7.17059 152.321L0.0523751 167.85L15.3179 160.182L12.6249 154.821ZM48.2345 136.935L50.4963 131.378L47.9745 130.351L45.5415 131.573L48.2345 136.935ZM164 72C164 107.556 129.603 138 85 138V150C134.286 150 176 115.973 176 72H164ZM85 6C129.603 6 164 36.4442 164 72H176C176 28.0268 134.286 -6 85 -6V6ZM6 72C6 36.4442 40.3973 6 85 6V-6C35.7143 -6 -6 28.0268 -6 72H6ZM30.3569 119.637C15.1706 107.472 6 90.5185 6 72H-6C-6 94.6991 5.27337 114.919 22.8543 129.003L30.3569 119.637ZM18.0792 157.321L32.0599 126.82L21.1513 121.82L7.17059 152.321L18.0792 157.321ZM45.5415 131.573L9.93186 149.459L15.3179 160.182L50.9275 142.297L45.5415 131.573ZM85 138C72.6008 138 60.8995 135.611 50.4963 131.378L45.9727 142.492C57.8223 147.315 71.0606 150 85 150V138Z" fill="url(#paint0_linear)" mask="url(#path-1-inside-1)"/>
<path d="M36.8928 75.28H33.8928V77.0556L35.4494 77.9099L36.8928 75.28ZM36.8928 68.56L35.4494 65.9301L33.8928 66.7844V68.56H36.8928ZM60.9728 55.344H63.9728V50.2754L59.5294 52.7141L60.9728 55.344ZM60.9728 62.176L62.4011 64.8142L63.9728 63.9633V62.176H60.9728ZM43.3888 71.696L41.9605 69.0578L40.3888 69.9087V71.696H43.3888ZM43.3888 72.144H40.3888V73.9313L41.9605 74.7822L43.3888 72.144ZM60.9728 81.664H63.9728V79.8767L62.4011 79.0258L60.9728 81.664ZM60.9728 88.496L59.5294 91.1259L63.9728 93.5646V88.496H60.9728ZM39.8928 75.28V68.56H33.8928V75.28H39.8928ZM38.3362 71.1899L62.4162 57.9739L59.5294 52.7141L35.4494 65.9301L38.3362 71.1899ZM57.9728 55.344V62.176H63.9728V55.344H57.9728ZM59.5445 59.5378L41.9605 69.0578L44.8171 74.3342L62.4011 64.8142L59.5445 59.5378ZM40.3888 71.696V72.144H46.3888V71.696H40.3888ZM41.9605 74.7822L59.5445 84.3022L62.4011 79.0258L44.8171 69.5058L41.9605 74.7822ZM57.9728 81.664V88.496H63.9728V81.664H57.9728ZM62.4162 85.8661L38.3362 72.6501L35.4494 77.9099L59.5294 91.1259L62.4162 85.8661ZM70.0789 96.728L67.262 95.696L65.7848 99.728H70.0789V96.728ZM88.5029 46.44V43.44H86.407L85.686 45.408L88.5029 46.44ZM94.9429 46.44L97.7598 47.472L99.237 43.44H94.9429V46.44ZM76.5189 96.728V99.728H78.6148L79.3358 97.76L76.5189 96.728ZM72.8958 97.76L91.3198 47.472L85.686 45.408L67.262 95.696L72.8958 97.76ZM88.5029 49.44H94.9429V43.44H88.5029V49.44ZM92.126 45.408L73.702 95.696L79.3358 97.76L97.7598 47.472L92.126 45.408ZM76.5189 93.728H70.0789V99.728H76.5189V93.728ZM104.049 81.664L102.621 79.0258L101.049 79.8767V81.664H104.049ZM121.633 72.144L123.061 74.7822L124.633 73.9313V72.144H121.633ZM121.633 71.696H124.633V69.9087L123.061 69.0578L121.633 71.696ZM104.049 62.176H101.049V63.9633L102.621 64.8142L104.049 62.176ZM104.049 55.344L105.492 52.7141L101.049 50.2754V55.344H104.049ZM128.129 68.56H131.129V66.7844L129.572 65.9301L128.129 68.56ZM128.129 75.28L129.572 77.9099L131.129 77.0556V75.28H128.129ZM104.049 88.496H101.049V93.5646L105.492 91.1259L104.049 88.496ZM105.477 84.3022L123.061 74.7822L120.205 69.5058L102.621 79.0258L105.477 84.3022ZM124.633 72.144V71.696H118.633V72.144H124.633ZM123.061 69.0578L105.477 59.5378L102.621 64.8142L120.205 74.3342L123.061 69.0578ZM107.049 62.176V55.344H101.049V62.176H107.049ZM102.606 57.9739L126.686 71.1899L129.572 65.9301L105.492 52.7141L102.606 57.9739ZM125.129 68.56V75.28H131.129V68.56H125.129ZM126.686 72.6501L102.606 85.8661L105.492 91.1259L129.572 77.9099L126.686 72.6501ZM107.049 88.496V81.664H101.049V88.496H107.049Z" fill="url(#paint1_linear)"/>
<defs>
<linearGradient id="paint0_linear" x1="141.5" y1="20" x2="48.5" y2="146.5" gradientUnits="userSpaceOnUse">
<stop stop-color="#6165BD"/>
<stop offset="1" stop-color="#84CAE7"/>
</linearGradient>
<linearGradient id="paint1_linear" x1="82.5" y1="35" x2="82.5" y2="101" gradientUnits="userSpaceOnUse">
<stop stop-color="#8488E7"/>
<stop offset="1" stop-color="#84CAE7"/>
</linearGradient>
</defs>
</svg>
