<svg width="180" height="180" viewBox="0 0 180 180" fill="none" xmlns="http://www.w3.org/2000/svg">
<rect width="180" height="180" rx="10" fill="#041B15"/>
<mask id="path-2-inside-1" fill="white">
<path fill-rule="evenodd" clip-rule="evenodd" d="M90 154C136.944 154 175 121.765 175 82C175 42.2355 136.944 10 90 10C43.0558 10 5 42.2355 5 82C5 102.609 15.222 121.195 31.6056 134.32L17.6249 164.821L53.2345 146.935C64.3609 151.463 76.8307 154 90 154Z"/>
</mask>
<path fill-rule="evenodd" clip-rule="evenodd" d="M90 154C136.944 154 175 121.765 175 82C175 42.2355 136.944 10 90 10C43.0558 10 5 42.2355 5 82C5 102.609 15.222 121.195 31.6056 134.32L17.6249 164.821L53.2345 146.935C64.3609 151.463 76.8307 154 90 154Z" fill="#041B15"/>
<path d="M31.6056 134.32L37.0599 136.82L39.0106 132.564L35.3569 129.637L31.6056 134.32ZM17.6249 164.821L12.1706 162.321L5.05238 177.85L20.3179 170.182L17.6249 164.821ZM53.2345 146.935L55.4963 141.378L52.9745 140.351L50.5415 141.573L53.2345 146.935ZM169 82C169 117.556 134.603 148 90 148V160C139.286 160 181 125.973 181 82H169ZM90 16C134.603 16 169 46.4442 169 82H181C181 38.0268 139.286 4 90 4V16ZM11 82C11 46.4442 45.3973 16 90 16V4C40.7143 4 -1 38.0268 -1 82H11ZM35.3569 129.637C20.1706 117.472 11 100.519 11 82H-1C-1 104.699 10.2734 124.919 27.8543 139.003L35.3569 129.637ZM23.0792 167.321L37.0599 136.82L26.1513 131.82L12.1706 162.321L23.0792 167.321ZM50.5415 141.573L14.9319 159.459L20.3179 170.182L55.9275 152.297L50.5415 141.573ZM90 148C77.6008 148 65.8995 145.611 55.4963 141.378L50.9727 152.492C62.8223 157.315 76.0606 160 90 160V148Z" fill="url(#paint0_linear)" mask="url(#path-2-inside-1)"/>
<path d="M41.8928 85.28V78.56L65.9728 65.344V72.176L48.3888 81.696V82.144L65.9728 91.664V98.496L41.8928 85.28ZM75.0789 106.728L93.5029 56.44H99.9429L81.5189 106.728H75.0789ZM109.049 91.664L126.633 82.144V81.696L109.049 72.176V65.344L133.129 78.56V85.28L109.049 98.496V91.664Z" fill="#041B15"/>
<path d="M41.8928 85.28H38.8928V87.0556L40.4494 87.9099L41.8928 85.28ZM41.8928 78.56L40.4494 75.9301L38.8928 76.7844V78.56H41.8928ZM65.9728 65.344H68.9728V60.2754L64.5294 62.7141L65.9728 65.344ZM65.9728 72.176L67.4011 74.8142L68.9728 73.9633V72.176H65.9728ZM48.3888 81.696L46.9605 79.0578L45.3888 79.9087V81.696H48.3888ZM48.3888 82.144H45.3888V83.9313L46.9605 84.7822L48.3888 82.144ZM65.9728 91.664H68.9728V89.8767L67.4011 89.0258L65.9728 91.664ZM65.9728 98.496L64.5294 101.126L68.9728 103.565V98.496H65.9728ZM44.8928 85.28V78.56H38.8928V85.28H44.8928ZM43.3362 81.1899L67.4162 67.9739L64.5294 62.7141L40.4494 75.9301L43.3362 81.1899ZM62.9728 65.344V72.176H68.9728V65.344H62.9728ZM64.5445 69.5378L46.9605 79.0578L49.8171 84.3342L67.4011 74.8142L64.5445 69.5378ZM45.3888 81.696V82.144H51.3888V81.696H45.3888ZM46.9605 84.7822L64.5445 94.3022L67.4011 89.0258L49.8171 79.5058L46.9605 84.7822ZM62.9728 91.664V98.496H68.9728V91.664H62.9728ZM67.4162 95.8661L43.3362 82.6501L40.4494 87.9099L64.5294 101.126L67.4162 95.8661ZM75.0789 106.728L72.262 105.696L70.7848 109.728H75.0789V106.728ZM93.5029 56.44V53.44H91.407L90.686 55.408L93.5029 56.44ZM99.9429 56.44L102.76 57.472L104.237 53.44H99.9429V56.44ZM81.5189 106.728V109.728H83.6148L84.3358 107.76L81.5189 106.728ZM77.8958 107.76L96.3198 57.472L90.686 55.408L72.262 105.696L77.8958 107.76ZM93.5029 59.44H99.9429V53.44H93.5029V59.44ZM97.126 55.408L78.702 105.696L84.3358 107.76L102.76 57.472L97.126 55.408ZM81.5189 103.728H75.0789V109.728H81.5189V103.728ZM109.049 91.664L107.621 89.0258L106.049 89.8767V91.664H109.049ZM126.633 82.144L128.061 84.7822L129.633 83.9313V82.144H126.633ZM126.633 81.696H129.633V79.9087L128.061 79.0578L126.633 81.696ZM109.049 72.176H106.049V73.9633L107.621 74.8142L109.049 72.176ZM109.049 65.344L110.492 62.7141L106.049 60.2754V65.344H109.049ZM133.129 78.56H136.129V76.7844L134.572 75.9301L133.129 78.56ZM133.129 85.28L134.572 87.9099L136.129 87.0556V85.28H133.129ZM109.049 98.496H106.049V103.565L110.492 101.126L109.049 98.496ZM110.477 94.3022L128.061 84.7822L125.205 79.5058L107.621 89.0258L110.477 94.3022ZM129.633 82.144V81.696H123.633V82.144H129.633ZM128.061 79.0578L110.477 69.5378L107.621 74.8142L125.205 84.3342L128.061 79.0578ZM112.049 72.176V65.344H106.049V72.176H112.049ZM107.606 67.9739L131.686 81.1899L134.572 75.9301L110.492 62.7141L107.606 67.9739ZM130.129 78.56V85.28H136.129V78.56H130.129ZM131.686 82.6501L107.606 95.8661L110.492 101.126L134.572 87.9099L131.686 82.6501ZM112.049 98.496V91.664H106.049V98.496H112.049Z" fill="url(#paint1_linear)"/>
<defs>
<linearGradient id="paint0_linear" x1="146.5" y1="30" x2="53.5" y2="156.5" gradientUnits="userSpaceOnUse">
<stop stop-color="#6165BD"/>
<stop offset="1" stop-color="#84CAE7"/>
</linearGradient>
<linearGradient id="paint1_linear" x1="87.5" y1="45" x2="87.5" y2="111" gradientUnits="userSpaceOnUse">
<stop stop-color="#8488E7"/>
<stop offset="1" stop-color="#84CAE7"/>
</linearGradient>
</defs>
</svg>
